P3
1 501
255
49 49 49
60 60 60
67 67 67
73 73 73
79 79 79
79 79 79
74 74 74
69 69 69
62 62 62
51 51 51
52 52 52
65 65 65
76 76 76
84 84 84
88 88 88
89 89 89
85 85 85
78 78 78
68 68 68
55 55 55
57 57 57
69 69 69
84 84 84
94 94 94
98 98 98
99 99 99
96 96 96
87 87 87
73 73 73
60 60 60
59 59 59
76 76 76
93 93 93
106 106 106
114 114 114
115 115 115
109 109 109
96 96 96
80 80 80
62 62 62
62 62 62
81 81 81
100 100 100
116 116 116
126 126 126
127 127 127
119 119 119
103 103 103
85 85 85
65 65 65
60 60 60
82 82 82
105 105 105
125 125 125
137 137 137
138 138 138
127 127 127
108 108 108
86 86 86
64 64 64
55 55 55
79 79 79
105 105 105
129 129 129
144 144 144
145 145 145
132 132 132
109 109 109
83 83 83
58 58 58
45 45 45
68 68 68
95 95 95
121 121 121
136 136 136
136 136 136
123 123 123
98 98 98
71 71 71
47 47 47
26 26 26
41 41 41
62 62 62
81 81 81
92 92 92
92 92 92
83 83 83
64 64 64
43 43 43
27 27 27
10 10 10
14 14 14
18 18 18
22 22 22
24 24 24
24 24 24
22 22 22
19 19 19
14 14 14
10 10 10
9 9 9
11 11 11
12 12 12
13 13 13
14 14 14
14 14 14
13 13 13
12 12 12
11 11 11
8 8 8
10 10 10
12 12 12
14 14 14
15 15 15
16 16 16
16 16 16
15 15 15
13 13 13
11 11 11
9 9 9
11 11 11
13 13 13
15 15 15
17 17 17
17 17 17
17 17 17
17 17 17
15 15 15
12 12 12
10 10 10
11 11 11
14 14 14
17 17 17
19 19 19
20 20 20
20 20 20
19 19 19
16 16 16
13 13 13
10 10 10
12 12 12
15 15 15
18 18 18
21 21 21
22 22 22
22 22 22
20 20 20
18 18 18
14 14 14
11 11 11
11 11 11
15 15 15
19 19 19
22 22 22
24 24 24
24 24 24
22 22 22
18 18 18
14 14 14
11 11 11
10 10 10
15 15 15
19 19 19
23 23 23
25 25 25
25 25 25
22 22 22
18 18 18
14 14 14
10 10 10
9 9 9
13 13 13
17 17 17
21 21 21
24 24 24
24 24 24
21 21 21
17 17 17
12 12 12
8 8 8
5 5 5
8 8 8
11 11 11
15 15 15
16 16 16
16 16 16
14 14 14
11 11 11
8 8 8
5 5 5
2 2 2
3 3 3
4 4 4
4 4 4
5 5 5
5 5 5
4 4 4
4 4 4
3 3 3
2 2 2
91 91 91
107 107 107
122 122 122
132 132 132
139 139 139
139 139 139
133 133 133
123 123 123
109 109 109
94 94 94
105 105 105
126 126 126
143 143 143
157 157 157
164 164 164
165 165 165
158 158 158
146 146 146
129 129 129
109 109 109
119 119 119
142 142 142
162 162 162
178 178 178
187 187 187
188 188 188
180 180 180
165 165 165
146 146 146
123 123 123
128 128 128
153 153 153
176 176 176
194 194 194
204 204 204
204 204 204
196 196 196
180 180 180
158 158 158
133 133 133
133 133 133
160 160 160
183 183 183
202 202 202
212 212 212
213 213 213
204 204 204
187 187 187
164 164 164
138 138 138
133 133 133
159 159 159
183 183 183
201 201 201
211 211 211
212 212 212
203 203 203
186 186 186
163 163 163
138 138 138
127 127 127
151 151 151
174 174 174
191 191 191
200 200 200
201 201 201
193 193 193
177 177 177
156 156 156
131 131 131
117 117 117
138 138 138
158 158 158
173 173 173
182 182 182
182 182 182
175 175 175
161 161 161
142 142 142
121 121 121
103 103 103
121 121 121
138 138 138
151 151 151
158 158 158
158 158 158
152 152 152
140 140 140
124 124 124
106 106 106
88 88 88
103 103 103
116 116 116
126 126 126
132 132 132
132 132 132
127 127 127
117 117 117
104 104 104
90 90 90
48 48 48
58 58 58
64 64 64
68 68 68
73 73 73
72 72 72
67 67 67
61 61 61
55 55 55
45 45 45
51 51 51
63 63 63
72 72 72
79 79 79
82 82 82
81 81 81
77 77 77
69 69 69
59 59 59
47 47 47
56 56 56
68 68 68
80 80 80
88 88 88
90 90 90
90 90 90
86 86 86
76 76 76
63 63 63
52 52 52
58 58 58
74 74 74
89 89 89
100 100 100
105 105 105
104 104 104
97 97 97
85 85 85
69 69 69
54 54 54
61 61 61
78 78 78
95 95 95
109 109 109
116 116 116
115 115 115
106 106 106
91 91 91
73 73 73
56 56 56
59 59 59
79 79 79
99 99 99
116 116 116
125 125 125
125 125 125
113 113 113
95 95 95
74 74 74
54 54 54
54 54 54
76 76 76
99 99 99
120 120 120
132 132 132
131 131 131
117 117 117
95 95 95
72 72 72
50 50 50
44 44 44
65 65 65
89 89 89
111 111 111
124 124 124
123 123 123
109 109 109
86 86 86
61 61 61
41 41 41
26 26 26
40 40 40
59 59 59
76 76 76
84 84 84
84 84 84
74 74 74
57 57 57
38 38 38
25 25 25
10 10 10
14 14 14
18 18 18
22 22 22
23 23 23
23 23 23
21 21 21
17 17 17
13 13 13
10 10 10
17 17 17
20 20 20
23 23 23
26 26 26
27 27 27
27 27 27
26 26 26
24 24 24
21 21 21
17 17 17
20 20 20
25 25 25
29 29 29
32 32 32
34 34 34
34 34 34
33 33 33
31 31 31
27 27 27
21 21 21
23 23 23
28 28 28
19 19 19
16 16 16
17 17 17
17 17 17
17 17 17
24 24 24
31 31 31
24 24 24
25 25 25
30 30 30
9 9 9
0 0 0
0 0 0
0 0 0
0 0 0
16 16 16
33 33 33
26 26 26
25 25 25
30 30 30
9 9 9
0 0 0
0 0 0
0 0 0
0 0 0
16 16 16
34 34 34
27 27 27
25 25 25
30 30 30
9 9 9
0 0 0
0 0 0
0 0 0
0 0 0
16 16 16
34 34 34
26 26 26
24 24 24
28 28 28
8 8 8
0 0 0
0 0 0
0 0 0
0 0 0
14 14 14
31 31 31
25 25 25
22 22 22
26 26 26
12 12 12
7 7 7
7 7 7
8 8 8
8 8 8
17 17 17
29 29 29
23 23 23
20 20 20
23 23 23
26 26 26
28 28 28
29 29 29
30 30 30
29 29 29
28 28 28
25 25 25
20 20 20
17 17 17
20 20 20
22 22 22
24 24 24
25 25 25
25 25 25
25 25 25
23 23 23
21 21 21
17 17 17
0 0 255
