P3
1 501
255
49 49 49
60 60 60
67 67 67
72 72 72
77 77 77
77 77 77
71 71 71
66 66 66
59 59 59
48 48 48
52 52 52
65 65 65
75 75 75
83 83 83
86 86 86
86 86 86
82 82 82
74 74 74
63 63 63
50 50 50
57 57 57
70 70 70
84 84 84
93 93 93
96 96 96
96 96 96
92 92 92
82 82 82
68 68 68
55 55 55
59 59 59
77 77 77
93 93 93
105 105 105
112 112 112
111 111 111
104 104 104
91 91 91
74 74 74
57 57 57
62 62 62
81 81 81
100 100 100
115 115 115
124 124 124
123 123 123
114 114 114
98 98 98
79 79 79
60 60 60
61 61 61
82 82 82
105 105 105
124 124 124
135 135 135
134 134 134
122 122 122
102 102 102
79 79 79
58 58 58
55 55 55
79 79 79
105 105 105
128 128 128
142 142 142
142 142 142
127 127 127
103 103 103
77 77 77
53 53 53
45 45 45
68 68 68
95 95 95
120 120 120
134 134 134
133 133 133
119 119 119
93 93 93
66 66 66
44 44 44
25 25 25
41 41 41
61 61 61
80 80 80
90 90 90
90 90 90
79 79 79
60 60 60
40 40 40
25 25 25
9 9 9
13 13 13
17 17 17
20 20 20
22 22 22
22 22 22
20 20 20
17 17 17
12 12 12
9 9 9
32 32 32
39 39 39
43 43 43
46 46 46
49 49 49
48 48 48
45 45 45
41 41 41
37 37 37
30 30 30
34 34 34
42 42 42
48 48 48
53 53 53
55 55 55
55 55 55
52 52 52
46 46 46
40 40 40
32 32 32
38 38 38
45 45 45
54 54 54
60 60 60
61 61 61
60 60 60
58 58 58
51 51 51
42 42 42
35 35 35
39 39 39
50 50 50
60 60 60
67 67 67
71 71 71
70 70 70
66 66 66
57 57 57
47 47 47
36 36 36
41 41 41
53 53 53
64 64 64
74 74 74
79 79 79
78 78 78
72 72 72
61 61 61
49 49 49
38 38 38
40 40 40
53 53 53
67 67 67
79 79 79
85 85 85
85 85 85
77 77 77
64 64 64
50 50 50
37 37 37
36 36 36
51 51 51
67 67 67
81 81 81
90 90 90
89 89 89
80 80 80
65 65 65
48 48 48
34 34 34
29 29 29
44 44 44
61 61 61
76 76 76
84 84 84
84 84 84
74 74 74
58 58 58
41 41 41
28 28 28
17 17 17
27 27 27
40 40 40
51 51 51
57 57 57
57 57 57
50 50 50
38 38 38
25 25 25
16 16 16
6 6 6
9 9 9
12 12 12
14 14 14
15 15 15
15 15 15
13 13 13
11 11 11
8 8 8
6 6 6
91 91 91
107 107 107
121 121 121
131 131 131
137 137 137
137 137 137
131 131 131
120 120 120
106 106 106
89 89 89
107 107 107
126 126 126
143 143 143
156 156 156
162 162 162
162 162 162
154 154 154
141 141 141
124 124 124
104 104 104
120 120 120
142 142 142
162 162 162
177 177 177
185 185 185
184 184 184
175 175 175
160 160 160
139 139 139
117 117 117
130 130 130
154 154 154
176 176 176
193 193 193
201 201 201
201 201 201
191 191 191
174 174 174
151 151 151
126 126 126
135 135 135
161 161 161
184 184 184
201 201 201
210 210 210
209 209 209
199 199 199
181 181 181
157 157 157
131 131 131
134 134 134
160 160 160
183 183 183
200 200 200
209 209 209
208 208 208
198 198 198
180 180 180
157 157 157
131 131 131
128 128 128
152 152 152
174 174 174
190 190 190
198 198 198
198 198 198
188 188 188
171 171 171
149 149 149
125 125 125
118 118 118
139 139 139
158 158 158
172 172 172
180 180 180
179 179 179
171 171 171
156 156 156
136 136 136
115 115 115
104 104 104
122 122 122
138 138 138
150 150 150
156 156 156
156 156 156
149 149 149
136 136 136
120 120 120
101 101 101
88 88 88
103 103 103
116 116 116
125 125 125
130 130 130
130 130 130
125 125 125
114 114 114
101 101 101
86 86 86
3 3 3
4 4 4
5 5 5
5 5 5
5 5 5
5 5 5
5 5 5
4 4 4
4 4 4
3 3 3
4 4 4
5 5 5
5 5 5
6 6 6
6 6 6
6 6 6
6 6 6
5 5 5
4 4 4
3 3 3
4 4 4
5 5 5
6 6 6
7 7 7
7 7 7
7 7 7
6 6 6
6 6 6
5 5 5
4 4 4
4 4 4
6 6 6
7 7 7
8 8 8
8 8 8
8 8 8
7 7 7
6 6 6
5 5 5
4 4 4
4 4 4
6 6 6
7 7 7
8 8 8
9 9 9
9 9 9
8 8 8
7 7 7
5 5 5
4 4 4
4 4 4
6 6 6
7 7 7
9 9 9
10 10 10
9 9 9
9 9 9
7 7 7
6 6 6
4 4 4
4 4 4
6 6 6
7 7 7
9 9 9
10 10 10
10 10 10
9 9 9
7 7 7
5 5 5
4 4 4
3 3 3
5 5 5
7 7 7
8 8 8
9 9 9
9 9 9
8 8 8
6 6 6
5 5 5
3 3 3
2 2 2
3 3 3
4 4 4
6 6 6
6 6 6
6 6 6
6 6 6
4 4 4
3 3 3
2 2 2
0 0 0
1 1 1
1 1 1
1 1 1
2 2 2
2 2 2
1 1 1
1 1 1
1 1 1
1 1 1
15 15 15
19 19 19
22 22 22
24 24 24
25 25 25
25 25 25
23 23 23
21 21 21
19 19 19
16 16 16
19 19 19
24 24 24
28 28 28
30 30 30
32 32 32
31 31 31
29 29 29
27 27 27
23 23 23
19 19 19
22 22 22
28 28 28
21 21 21
15 15 15
16 16 16
16 16 16
15 15 15
17 17 17
26 26 26
22 22 22
23 23 23
30 30 30
13 13 13
0 0 0
0 0 0
0 0 0
0 0 0
8 8 8
28 28 28
23 23 23
24 24 24
30 30 30
13 13 13
0 0 0
0 0 0
0 0 0
0 0 0
8 8 8
28 28 28
24 24 24
24 24 24
30 30 30
13 13 13
0 0 0
0 0 0
0 0 0
0 0 0
7 7 7
27 27 27
23 23 23
22 22 22
28 28 28
12 12 12
0 0 0
0 0 0
0 0 0
0 0 0
7 7 7
26 26 26
22 22 22
21 21 21
26 26 26
15 15 15
7 7 7
7 7 7
7 7 7
6 6 6
11 11 11
24 24 24
21 21 21
18 18 18
22 22 22
25 25 25
27 27 27
27 27 27
27 27 27
26 26 26
24 24 24
22 22 22
19 19 19
16 16 16
19 19 19
21 21 21
23 23 23
23 23 23
23 23 23
22 22 22
21 21 21
19 19 19
16 16 16
0 0 255
