P3
1 501
255
47 47 47
58 58 58
65 65 65
70 70 70
75 75 75
75 75 75
70 70 70
64 64 64
58 58 58
47 47 47
50 50 50
62 62 62
73 73 73
80 80 80
84 84 84
84 84 84
80 80 80
72 72 72
62 62 62
49 49 49
55 55 55
67 67 67
80 80 80
90 90 90
93 93 93
93 93 93
90 90 90
80 80 80
66 66 66
54 54 54
56 56 56
73 73 73
89 89 89
102 102 102
109 109 109
109 109 109
102 102 102
89 89 89
73 73 73
56 56 56
59 59 59
78 78 78
96 96 96
112 112 112
121 121 121
121 121 121
112 112 112
96 96 96
77 77 77
58 58 58
57 57 57
78 78 78
101 101 101
120 120 120
132 132 132
132 132 132
120 120 120
101 101 101
78 78 78
57 57 57
52 52 52
76 76 76
102 102 102
125 125 125
139 139 139
139 139 139
125 125 125
101 101 101
75 75 75
52 52 52
43 43 43
65 65 65
92 92 92
117 117 117
131 131 131
131 131 131
117 117 117
91 91 91
64 64 64
42 42 42
24 24 24
39 39 39
59 59 59
78 78 78
88 88 88
88 88 88
78 78 78
59 59 59
38 38 38
24 24 24
8 8 8
11 11 11
15 15 15
19 19 19
21 21 21
21 21 21
19 19 19
15 15 15
11 11 11
8 8 8
10 10 10
12 12 12
14 14 14
15 15 15
16 16 16
16 16 16
15 15 15
13 13 13
12 12 12
10 10 10
11 11 11
14 14 14
16 16 16
17 17 17
18 18 18
18 18 18
17 17 17
15 15 15
13 13 13
10 10 10
12 12 12
15 15 15
17 17 17
19 19 19
20 20 20
20 20 20
19 19 19
17 17 17
14 14 14
11 11 11
13 13 13
16 16 16
19 19 19
22 22 22
23 23 23
23 23 23
21 21 21
19 19 19
15 15 15
12 12 12
13 13 13
17 17 17
21 21 21
24 24 24
26 26 26
26 26 26
23 23 23
20 20 20
16 16 16
12 12 12
13 13 13
17 17 17
22 22 22
26 26 26
28 28 28
28 28 28
25 25 25
21 21 21
16 16 16
12 12 12
12 12 12
17 17 17
22 22 22
27 27 27
29 29 29
29 29 29
26 26 26
21 21 21
16 16 16
11 11 11
9 9 9
14 14 14
20 20 20
25 25 25
28 28 28
27 27 27
24 24 24
19 19 19
13 13 13
9 9 9
5 5 5
8 8 8
13 13 13
17 17 17
19 19 19
18 18 18
16 16 16
12 12 12
8 8 8
5 5 5
2 2 2
2 2 2
3 3 3
4 4 4
5 5 5
4 4 4
4 4 4
3 3 3
2 2 2
2 2 2
89 89 89
105 105 105
119 119 119
129 129 129
135 135 135
135 135 135
129 129 129
118 118 118
104 104 104
88 88 88
103 103 103
123 123 123
140 140 140
153 153 153
160 160 160
160 160 160
152 152 152
139 139 139
122 122 122
102 102 102
116 116 116
138 138 138
158 158 158
173 173 173
182 182 182
181 181 181
173 173 173
158 158 158
138 138 138
115 115 115
125 125 125
150 150 150
172 172 172
189 189 189
198 198 198
198 198 198
188 188 188
171 171 171
149 149 149
125 125 125
130 130 130
156 156 156
179 179 179
197 197 197
206 206 206
206 206 206
196 196 196
178 178 178
155 155 155
130 130 130
130 130 130
155 155 155
178 178 178
196 196 196
205 205 205
205 205 205
195 195 195
178 178 178
155 155 155
129 129 129
124 124 124
148 148 148
170 170 170
186 186 186
195 195 195
195 195 195
186 186 186
169 169 169
147 147 147
123 123 123
114 114 114
135 135 135
154 154 154
169 169 169
177 177 177
177 177 177
169 169 169
154 154 154
135 135 135
113 113 113
101 101 101
119 119 119
135 135 135
147 147 147
154 154 154
154 154 154
147 147 147
134 134 134
118 118 118
100 100 100
86 86 86
100 100 100
113 113 113
123 123 123
128 128 128
128 128 128
123 123 123
113 113 113
100 100 100
85 85 85
3 3 3
4 4 4
4 4 4
5 5 5
5 5 5
5 5 5
5 5 5
4 4 4
4 4 4
3 3 3
3 3 3
4 4 4
5 5 5
5 5 5
6 6 6
6 6 6
5 5 5
5 5 5
4 4 4
3 3 3
4 4 4
5 5 5
6 6 6
6 6 6
6 6 6
6 6 6
6 6 6
5 5 5
4 4 4
3 3 3
4 4 4
5 5 5
6 6 6
7 7 7
8 8 8
7 7 7
7 7 7
6 6 6
5 5 5
4 4 4
4 4 4
6 6 6
7 7 7
8 8 8
8 8 8
8 8 8
8 8 8
6 6 6
5 5 5
4 4 4
4 4 4
6 6 6
7 7 7
8 8 8
9 9 9
9 9 9
8 8 8
7 7 7
5 5 5
4 4 4
4 4 4
5 5 5
7 7 7
9 9 9
10 10 10
10 10 10
9 9 9
7 7 7
5 5 5
3 3 3
3 3 3
4 4 4
6 6 6
8 8 8
9 9 9
9 9 9
8 8 8
6 6 6
4 4 4
3 3 3
1 1 1
3 3 3
4 4 4
5 5 5
6 6 6
6 6 6
5 5 5
4 4 4
2 2 2
1 1 1
0 0 0
1 1 1
1 1 1
1 1 1
1 1 1
1 1 1
1 1 1
1 1 1
1 1 1
0 0 0
14 14 14
17 17 17
20 20 20
22 22 22
22 22 22
22 22 22
21 21 21
19 19 19
17 17 17
14 14 14
17 17 17
21 21 21
25 25 25
27 27 27
29 29 29
29 29 29
27 27 27
24 24 24
21 21 21
18 18 18
20 20 20
24 24 24
18 18 18
14 14 14
15 15 15
15 15 15
14 14 14
16 16 16
24 24 24
20 20 20
21 21 21
26 26 26
9 9 9
0 0 0
0 0 0
0 0 0
0 0 0
8 8 8
25 25 25
21 21 21
21 21 21
26 26 26
9 9 9
0 0 0
0 0 0
0 0 0
0 0 0
8 8 8
26 26 26
22 22 22
21 21 21
26 26 26
9 9 9
0 0 0
0 0 0
0 0 0
0 0 0
7 7 7
25 25 25
21 21 21
20 20 20
24 24 24
8 8 8
0 0 0
0 0 0
0 0 0
0 0 0
7 7 7
24 24 24
20 20 20
19 19 19
22 22 22
11 11 11
6 6 6
6 6 6
6 6 6
6 6 6
10 10 10
22 22 22
19 19 19
17 17 17
20 20 20
22 22 22
24 24 24
24 24 24
24 24 24
23 23 23
22 22 22
20 20 20
17 17 17
15 15 15
17 17 17
19 19 19
20 20 20
21 21 21
21 21 21
20 20 20
19 19 19
17 17 17
15 15 15
0 0 255
