P3
11 11
255
2 6 2
3 7 2
3 10 3
4 13 4
5 14 4
5 15 4
5 14 4
4 12 4
3 10 3
3 7 2
2 6 2
4 11 3
5 14 4
7 22 7
9 29 9
10 34 11
10 36 12
10 34 11
8 28 9
6 21 6
4 14 4
4 11 3
7 23 7
9 29 9
12 43 14
16 57 18
19 67 22
20 70 23
19 66 22
16 55 18
12 41 13
8 28 9
6 22 7
10 33 11
12 40 13
16 56 18
20 71 23
23 83 27
24 87 28
23 82 27
20 69 23
15 53 17
11 38 12
9 31 10
11 38 12
13 45 15
17 60 19
21 74 24
24 84 27
25 87 29
23 83 27
20 71 23
16 57 19
12 42 14
10 35 11
12 40 13
13 47 15
17 59 19
20 71 23
22 79 26
23 82 27
22 78 25
20 69 22
16 56 18
13 43 14
11 37 12
11 40 13
13 46 15
16 57 18
19 66 22
21 73 24
21 74 24
20 71 23
18 64 21
15 54 17
12 42 14
11 37 12
11 38 12
12 43 14
15 52 17
17 60 20
19 65 21
19 66 21
18 64 21
17 58 19
14 49 16
12 40 13
10 35 11
10 36 12
11 40 13
14 48 15
15 54 17
16 57 19
17 58 19
16 56 18
15 52 17
13 45 15
11 37 12
10 33 11
9 33 11
10 37 12
12 43 14
14 47 15
14 51 16
15 52 17
14 50 16
13 46 15
12 41 13
10 35 11
9 31 10
9 32 10
10 35 11
12 41 13
13 44 14
13 47 15
14 49 16
13 47 15
12 43 14
11 39 13
10 33 11
8 30 10
