P3
11 11
255
17 16 15
19 17 16
21 20 18
23 22 20
25 23 21
25 23 21
25 23 21
24 21 20
22 20 18
19 18 16
17 16 15
19 17 16
20 19 17
23 22 20
25 24 21
27 25 22
27 25 23
27 24 22
26 23 21
24 21 19
21 19 17
19 18 16
21 20 18
23 22 19
22 22 19
18 18 16
18 17 15
18 17 15
18 16 15
20 17 15
25 20 19
24 21 20
22 20 18
23 22 19
25 24 21
19 20 17
7 8 6
3 3 3
3 3 3
4 3 3
10 6 6
23 17 16
27 23 21
24 22 20
24 23 21
27 26 23
19 21 17
4 6 4
0 0 0
0 0 0
0 0 0
7 3 3
24 17 16
29 25 23
26 23 21
25 24 21
27 27 24
19 22 17
4 6 4
0 0 0
0 0 0
0 0 0
8 4 3
25 18 16
30 26 23
27 23 22
25 24 21
27 27 24
20 22 17
4 6 4
0 0 0
0 0 0
0 0 0
8 4 4
25 18 17
30 26 24
26 23 21
24 23 20
26 26 23
22 23 19
11 12 10
8 8 7
8 8 7
8 7 7
14 10 9
26 20 18
29 25 23
25 22 21
22 20 19
24 23 21
25 25 22
24 24 21
25 23 21
26 24 22
25 23 21
26 22 20
28 23 22
26 23 21
23 21 19
19 17 16
21 19 17
24 23 21
27 26 23
30 28 25
30 28 26
30 27 25
29 25 23
26 22 21
21 19 18
19 18 16
17 15 14
19 17 16
22 21 18
24 23 21
26 24 22
27 25 22
27 24 22
25 22 20
23 20 18
19 17 16
17 16 14
