P3
11 11
255
10 9 8
12 11 10
16 15 13
20 19 17
23 21 20
24 22 21
23 21 20
20 18 17
16 15 13
12 11 10
10 9 8
18 17 16
23 22 20
34 33 31
46 45 43
55 53 51
58 56 54
55 53 51
47 44 43
35 32 31
23 22 20
18 17 16
36 35 33
45 45 42
66 66 64
90 89 86
107 106 104
114 112 110
108 105 103
92 88 86
69 65 63
47 43 42
37 34 33
50 50 47
62 62 59
87 87 84
113 112 109
133 131 128
140 138 135
134 130 128
115 110 109
90 85 83
65 60 58
53 48 47
57 58 55
69 69 66
93 93 89
116 116 112
134 132 129
141 138 136
135 131 129
119 114 112
96 90 89
73 67 65
61 56 54
61 61 58
71 72 68
92 92 88
111 111 107
126 124 121
132 129 126
128 123 121
114 109 107
96 90 88
75 69 67
65 59 58
60 61 58
69 70 67
87 88 84
104 103 100
116 114 111
120 118 115
117 113 111
107 102 100
91 85 84
73 67 66
64 58 57
58 58 55
65 66 63
81 81 77
94 94 91
103 102 99
106 104 101
104 101 99
97 92 90
84 79 77
69 64 62
61 56 55
54 55 52
61 61 58
73 73 71
84 84 81
91 90 87
93 91 89
92 89 87
86 82 81
76 72 70
64 59 58
58 53 52
50 51 48
57 57 54
67 67 64
75 74 72
81 80 77
84 82 80
82 79 77
76 73 72
69 65 64
59 55 54
53 49 48
49 49 47
55 55 53
64 63 61
70 69 67
76 75 73
79 77 75
76 74 73
71 69 67
65 62 61
57 53 52
51 48 47
