P3
11 11
255
88 88 86
95 95 93
109 109 107
121 120 118
129 128 126
132 130 128
130 127 126
122 120 118
111 108 106
97 94 93
90 86 85
95 96 93
104 104 101
120 119 117
133 132 130
142 140 138
145 143 141
143 140 138
134 131 129
122 118 116
106 102 101
98 94 93
110 111 107
120 121 117
139 139 136
155 155 151
166 165 162
170 168 165
167 164 161
157 153 151
142 137 135
123 118 116
114 108 107
122 123 119
133 134 130
155 156 152
174 173 170
187 185 182
191 189 186
188 184 181
176 171 169
159 153 151
137 131 130
126 120 118
130 131 127
143 144 139
167 167 163
187 186 182
201 199 196
206 203 200
202 198 195
190 184 182
170 164 162
147 140 139
135 128 126
133 135 130
146 147 143
171 172 167
192 192 188
206 205 201
212 209 206
208 204 201
195 189 187
175 169 166
151 144 142
138 131 129
131 132 128
144 145 140
168 169 164
189 188 184
203 201 197
208 205 202
204 200 197
192 186 184
172 166 164
148 141 140
136 129 127
123 125 121
135 137 132
158 159 155
177 177 173
191 189 185
196 193 190
192 188 185
180 175 173
162 156 154
140 133 132
128 121 120
112 113 109
123 124 120
143 143 140
160 160 156
171 170 167
176 173 171
173 169 167
162 158 156
146 141 139
127 121 119
116 110 109
98 99 96
107 108 105
124 124 121
138 138 135
148 147 144
152 150 147
149 146 144
140 137 135
127 123 121
110 106 104
101 97 95
91 91 89
99 99 97
114 114 112
127 126 124
135 134 132
139 137 135
136 134 132
128 125 123
116 113 111
102 98 96
94 89 88
