P3
11 11
255
10 0 0
12 1 0
16 1 1
20 1 1
22 1 1
23 2 1
22 1 1
19 1 1
15 1 1
12 1 0
10 1 0
18 1 1
22 1 1
33 2 2
44 3 3
51 4 3
54 4 4
50 4 3
42 3 3
31 2 2
22 1 1
17 1 1
35 2 2
44 3 3
63 5 4
84 6 6
99 7 7
104 8 7
98 7 7
82 6 6
61 4 4
41 3 3
33 2 2
49 4 3
60 4 4
83 6 6
105 8 8
122 9 9
127 10 9
120 9 9
102 8 7
79 6 6
56 4 4
46 3 3
57 4 4
67 5 5
89 7 6
109 8 8
123 9 9
128 10 9
121 9 9
105 8 8
84 6 6
62 5 4
52 4 4
60 4 4
69 5 5
88 7 6
105 8 8
116 9 8
120 9 9
115 9 8
101 8 7
83 6 6
64 5 4
55 4 4
59 4 4
68 5 5
84 6 6
98 7 7
107 8 8
110 8 8
105 8 8
94 7 7
79 6 6
63 5 4
55 4 4
57 4 4
64 5 4
78 6 5
89 7 6
96 7 7
97 7 7
94 7 7
86 6 6
73 5 5
59 4 4
53 4 4
54 4 4
60 4 4
71 5 5
80 6 6
85 6 6
86 6 6
83 6 6
77 6 5
67 5 5
55 4 4
50 4 3
50 4 3
55 4 4
64 5 4
71 5 5
75 6 5
77 6 5
74 5 5
68 5 5
61 4 4
52 4 3
46 3 3
48 3 3
53 4 4
61 4 4
66 5 5
70 5 5
72 5 5
70 5 5
64 5 4
58 4 4
50 4 3
45 3 3
