P3
1 126
255
42 42 42
58 58 58
62 62 62
58 58 58
42 42 42
52 52 52
77 77 77
86 86 86
77 77 77
52 52 52
56 56 56
96 96 96
116 116 116
96 96 96
56 56 56
46 46 46
97 97 97
123 123 123
97 97 97
46 46 46
8 8 8
24 24 24
33 33 33
24 24 24
8 8 8
9 9 9
12 12 12
13 13 13
12 12 12
9 9 9
11 11 11
16 16 16
18 18 18
17 17 17
12 12 12
12 12 12
20 20 20
24 24 24
21 21 21
13 13 13
10 10 10
20 20 20
26 26 26
21 21 21
10 10 10
2 2 2
5 5 5
7 7 7
5 5 5
2 2 2
95 95 95
130 130 130
142 142 142
131 131 131
98 98 98
130 130 130
180 180 180
198 198 198
183 183 183
134 134 134
141 141 141
198 198 198
219 219 219
201 201 201
146 146 146
130 130 130
180 180 180
199 199 199
183 183 183
134 134 134
96 96 96
131 131 131
143 143 143
132 132 132
99 99 99
4 4 4
5 5 5
5 5 5
5 5 5
3 3 3
4 4 4
6 6 6
7 7 7
6 6 6
4 4 4
5 5 5
8 8 8
9 9 9
7 7 7
4 4 4
4 4 4
7 7 7
9 9 9
7 7 7
3 3 3
1 1 1
2 2 2
3 3 3
2 2 2
1 1 1
17 17 17
22 22 22
23 23 23
21 21 21
17 17 17
23 23 23
0 0 0
0 0 0
0 0 0
21 21 21
25 25 25
0 0 0
0 0 0
0 0 0
22 22 22
22 22 22
0 0 0
0 0 0
0 0 0
21 21 21
17 17 17
22 22 22
23 23 23
21 21 21
17 17 17
0 0 255
