P3
1 501
255
47 47 47
58 58 58
66 66 66
70 70 70
75 75 75
75 75 75
70 70 70
66 66 66
58 58 58
47 47 47
51 51 51
64 64 64
74 74 74
82 82 82
86 86 86
86 86 86
81 81 81
74 74 74
63 63 63
51 51 51
53 53 53
68 68 68
82 82 82
92 92 92
97 97 97
97 97 97
91 91 91
81 81 81
68 68 68
53 53 53
55 55 55
71 71 71
87 87 87
99 99 99
106 106 106
106 106 106
99 99 99
87 87 87
71 71 71
54 54 54
57 57 57
78 78 78
96 96 96
112 112 112
123 123 123
123 123 123
112 112 112
96 96 96
77 77 77
57 57 57
58 58 58
80 80 80
103 103 103
123 123 123
136 136 136
136 136 136
123 123 123
103 103 103
80 80 80
58 58 58
52 52 52
74 74 74
100 100 100
124 124 124
137 137 137
136 136 136
123 123 123
100 100 100
74 74 74
52 52 52
41 41 41
63 63 63
90 90 90
115 115 115
130 130 130
129 129 129
115 115 115
90 90 90
62 62 62
41 41 41
23 23 23
38 38 38
58 58 58
76 76 76
86 86 86
86 86 86
76 76 76
57 57 57
37 37 37
23 23 23
7 7 7
10 10 10
14 14 14
17 17 17
18 18 18
18 18 18
16 16 16
14 14 14
10 10 10
8 8 8
10 10 10
12 12 12
14 14 14
15 15 15
16 16 16
16 16 16
15 15 15
14 14 14
12 12 12
10 10 10
10 10 10
13 13 13
15 15 15
17 17 17
18 18 18
18 18 18
17 17 17
16 16 16
14 14 14
11 11 11
11 11 11
14 14 14
17 17 17
19 19 19
20 20 20
21 21 21
20 20 20
18 18 18
15 15 15
12 12 12
11 11 11
15 15 15
18 18 18
21 21 21
22 22 22
23 23 23
21 21 21
19 19 19
16 16 16
12 12 12
12 12 12
16 16 16
20 20 20
24 24 24
26 26 26
26 26 26
24 24 24
21 21 21
17 17 17
13 13 13
12 12 12
17 17 17
21 21 21
26 26 26
29 29 29
29 29 29
26 26 26
22 22 22
18 18 18
13 13 13
11 11 11
15 15 15
21 21 21
26 26 26
29 29 29
29 29 29
26 26 26
22 22 22
16 16 16
12 12 12
8 8 8
13 13 13
19 19 19
24 24 24
27 27 27
27 27 27
24 24 24
19 19 19
14 14 14
9 9 9
5 5 5
8 8 8
12 12 12
16 16 16
18 18 18
18 18 18
16 16 16
12 12 12
8 8 8
5 5 5
2 2 2
2 2 2
3 3 3
4 4 4
4 4 4
4 4 4
4 4 4
3 3 3
2 2 2
1 1 1
85 85 85
100 100 100
113 113 113
123 123 123
129 129 129
130 130 130
125 125 125
115 115 115
102 102 102
88 88 88
100 100 100
118 118 118
135 135 135
147 147 147
155 155 155
155 155 155
149 149 149
138 138 138
122 122 122
104 104 104
113 113 113
134 134 134
154 154 154
169 169 169
178 178 178
178 178 178
172 172 172
158 158 158
139 139 139
118 118 118
123 123 123
147 147 147
169 169 169
186 186 186
195 195 195
196 196 196
189 189 189
173 173 173
152 152 152
129 129 129
128 128 128
154 154 154
177 177 177
195 195 195
205 205 205
206 206 206
198 198 198
181 181 181
160 160 160
135 135 135
128 128 128
154 154 154
177 177 177
195 195 195
205 205 205
206 206 206
198 198 198
182 182 182
160 160 160
135 135 135
123 123 123
147 147 147
169 169 169
186 186 186
196 196 196
197 197 197
189 189 189
173 173 173
153 153 153
129 129 129
113 113 113
135 135 135
154 154 154
170 170 170
178 178 178
179 179 179
172 172 172
158 158 158
140 140 140
119 119 119
100 100 100
119 119 119
135 135 135
148 148 148
155 155 155
156 156 156
150 150 150
138 138 138
123 123 123
105 105 105
86 86 86
101 101 101
114 114 114
124 124 124
130 130 130
130 130 130
125 125 125
116 116 116
103 103 103
89 89 89
3 3 3
4 4 4
4 4 4
5 5 5
5 5 5
5 5 5
5 5 5
4 4 4
4 4 4
3 3 3
4 4 4
4 4 4
5 5 5
6 6 6
6 6 6
6 6 6
5 5 5
5 5 5
4 4 4
3 3 3
4 4 4
5 5 5
6 6 6
6 6 6
7 7 7
7 7 7
6 6 6
5 5 5
4 4 4
3 3 3
4 4 4
5 5 5
6 6 6
7 7 7
7 7 7
7 7 7
7 7 7
6 6 6
5 5 5
4 4 4
4 4 4
6 6 6
7 7 7
8 8 8
9 9 9
8 8 8
8 8 8
6 6 6
5 5 5
4 4 4
4 4 4
6 6 6
7 7 7
9 9 9
9 9 9
9 9 9
8 8 8
7 7 7
5 5 5
4 4 4
4 4 4
5 5 5
7 7 7
9 9 9
9 9 9
9 9 9
8 8 8
7 7 7
5 5 5
3 3 3
3 3 3
4 4 4
6 6 6
8 8 8
9 9 9
9 9 9
8 8 8
6 6 6
4 4 4
3 3 3
1 1 1
2 2 2
4 4 4
5 5 5
6 6 6
6 6 6
5 5 5
4 4 4
2 2 2
1 1 1
0 0 0
1 1 1
1 1 1
1 1 1
1 1 1
1 1 1
1 1 1
1 1 1
0 0 0
0 0 0
14 14 14
17 17 17
20 20 20
21 21 21
21 21 21
21 21 21
20 20 20
19 19 19
17 17 17
14 14 14
17 17 17
22 22 22
24 24 24
26 26 26
26 26 26
25 25 25
24 24 24
22 22 22
20 20 20
17 17 17
20 20 20
25 25 25
18 18 18
9 9 9
9 9 9
9 9 9
8 8 8
11 11 11
22 22 22
19 19 19
21 21 21
28 28 28
14 14 14
0 0 0
0 0 0
0 0 0
0 0 0
6 6 6
24 24 24
20 20 20
22 22 22
29 29 29
15 15 15
0 0 0
0 0 0
0 0 0
0 0 0
6 6 6
24 24 24
21 21 21
22 22 22
29 29 29
15 15 15
0 0 0
0 0 0
0 0 0
0 0 0
6 6 6
24 24 24
21 21 21
21 21 21
27 27 27
14 14 14
0 0 0
0 0 0
0 0 0
0 0 0
6 6 6
24 24 24
20 20 20
19 19 19
25 25 25
16 16 16
7 7 7
7 7 7
7 7 7
7 7 7
10 10 10
22 22 22
19 19 19
17 17 17
22 22 22
24 24 24
25 25 25
26 26 26
25 25 25
24 24 24
22 22 22
20 20 20
17 17 17
14 14 14
18 18 18
20 20 20
21 21 21
21 21 21
21 21 21
20 20 20
19 19 19
17 17 17
15 15 15
0 0 255
