P3
1 126
255
42 42 42
62 62 62
58 58 58
36 36 36
0 0 0
53 53 53
94 94 94
83 83 83
39 39 39
0 0 0
46 46 46
116 116 116
97 97 97
29 29 29
0 0 0
0 0 0
0 0 0
0 0 0
0 0 0
0 0 0
0 0 0
0 0 0
0 0 0
0 0 0
0 0 0
9 9 9
13 13 13
12 12 12
7 7 7
3 3 3
12 12 12
20 20 20
17 17 17
8 8 8
3 3 3
9 9 9
24 24 24
20 20 20
6 6 6
1 1 1
0 0 0
0 0 0
0 0 0
0 0 0
0 0 0
0 0 0
0 0 0
0 0 0
0 0 0
0 0 0
99 99 99
143 143 143
131 131 131
78 78 78
0 0 0
140 140 140
208 208 208
191 191 191
111 111 111
0 0 0
129 129 129
191 191 191
177 177 177
105 105 105
0 0 0
79 79 79
112 112 112
105 105 105
66 66 66
0 0 0
39 39 39
53 53 53
50 50 50
34 34 34
9 9 9
3 3 3
4 4 4
4 4 4
2 2 2
1 1 1
4 4 4
7 7 7
6 6 6
3 3 3
1 1 1
3 3 3
8 8 8
7 7 7
2 2 2
0 0 0
0 0 0
0 0 0
0 0 0
0 0 0
0 0 0
0 0 0
0 0 0
0 0 0
0 0 0
0 0 0
11 11 11
14 14 14
11 11 11
6 6 6
0 0 0
15 15 15
0 0 0
0 0 0
8 8 8
0 0 0
13 13 13
0 0 0
0 0 0
7 7 7
0 0 0
8 8 8
10 10 10
8 8 8
5 5 5
0 0 0
4 4 4
5 5 5
4 4 4
3 3 3
0 0 0
0 0 255
