P3
1 501
255
48 48 48
59 59 59
66 66 66
72 72 72
76 76 76
75 75 75
72 72 72
66 66 66
58 58 58
48 48 48
52 52 52
64 64 64
74 74 74
82 82 82
86 86 86
86 86 86
82 82 82
74 74 74
64 64 64
51 51 51
54 54 54
69 69 69
82 82 82
92 92 92
99 99 99
99 99 99
92 92 92
82 82 82
68 68 68
54 54 54
57 57 57
74 74 74
90 90 90
103 103 103
110 110 110
110 110 110
103 103 103
89 89 89
73 73 73
56 56 56
58 58 58
78 78 78
97 97 97
113 113 113
122 122 122
122 122 122
112 112 112
96 96 96
78 78 78
58 58 58
57 57 57
78 78 78
102 102 102
123 123 123
134 134 134
134 134 134
122 122 122
101 101 101
77 77 77
56 56 56
51 51 51
74 74 74
101 101 101
124 124 124
138 138 138
138 138 138
124 124 124
100 100 100
74 74 74
51 51 51
40 40 40
62 62 62
89 89 89
114 114 114
128 128 128
128 128 128
114 114 114
89 89 89
61 61 61
40 40 40
21 21 21
34 34 34
52 52 52
69 69 69
78 78 78
78 78 78
69 69 69
52 52 52
34 34 34
21 21 21
7 7 7
9 9 9
12 12 12
13 13 13
14 14 14
14 14 14
13 13 13
11 11 11
9 9 9
7 7 7
10 10 10
12 12 12
14 14 14
15 15 15
16 16 16
16 16 16
15 15 15
14 14 14
13 13 13
10 10 10
11 11 11
13 13 13
15 15 15
17 17 17
18 18 18
18 18 18
18 18 18
16 16 16
14 14 14
11 11 11
11 11 11
14 14 14
17 17 17
19 19 19
21 21 21
21 21 21
20 20 20
18 18 18
15 15 15
12 12 12
12 12 12
15 15 15
19 19 19
22 22 22
23 23 23
23 23 23
22 22 22
20 20 20
16 16 16
13 13 13
12 12 12
16 16 16
20 20 20
24 24 24
26 26 26
26 26 26
24 24 24
21 21 21
17 17 17
13 13 13
12 12 12
16 16 16
21 21 21
26 26 26
28 28 28
28 28 28
26 26 26
22 22 22
17 17 17
13 13 13
11 11 11
15 15 15
21 21 21
26 26 26
29 29 29
29 29 29
27 27 27
22 22 22
16 16 16
11 11 11
8 8 8
13 13 13
18 18 18
24 24 24
27 27 27
27 27 27
24 24 24
19 19 19
14 14 14
9 9 9
4 4 4
7 7 7
11 11 11
14 14 14
16 16 16
17 17 17
15 15 15
11 11 11
7 7 7
5 5 5
2 2 2
2 2 2
2 2 2
3 3 3
3 3 3
3 3 3
3 3 3
3 3 3
2 2 2
1 1 1
89 89 89
104 104 104
118 118 118
126 126 126
132 132 132
132 132 132
127 127 127
120 120 120
107 107 107
92 92 92
104 104 104
123 123 123
141 141 141
150 150 150
158 158 158
158 158 158
152 152 152
144 144 144
127 127 127
109 109 109
118 118 118
141 141 141
161 161 161
173 173 173
182 182 182
183 183 183
176 176 176
165 165 165
146 146 146
124 124 124
125 125 125
150 150 150
173 173 173
186 186 186
195 195 195
196 196 196
189 189 189
177 177 177
156 156 156
131 131 131
131 131 131
157 157 157
181 181 181
195 195 195
205 205 205
206 206 206
198 198 198
186 186 186
163 163 163
137 137 137
131 131 131
157 157 157
181 181 181
195 195 195
205 205 205
206 206 206
198 198 198
186 186 186
163 163 163
137 137 137
125 125 125
150 150 150
173 173 173
186 186 186
196 196 196
197 197 197
189 189 189
178 178 178
156 156 156
132 132 132
118 118 118
141 141 141
162 162 162
174 174 174
183 183 183
183 183 183
176 176 176
166 166 166
146 146 146
124 124 124
104 104 104
124 124 124
142 142 142
151 151 151
159 159 159
159 159 159
153 153 153
145 145 145
128 128 128
109 109 109
89 89 89
105 105 105
119 119 119
127 127 127
133 133 133
133 133 133
128 128 128
121 121 121
107 107 107
92 92 92
3 3 3
4 4 4
4 4 4
5 5 5
5 5 5
5 5 5
5 5 5
4 4 4
4 4 4
3 3 3
4 4 4
4 4 4
5 5 5
6 6 6
6 6 6
6 6 6
5 5 5
5 5 5
4 4 4
3 3 3
4 4 4
5 5 5
6 6 6
6 6 6
7 7 7
7 7 7
6 6 6
5 5 5
5 5 5
3 3 3
4 4 4
5 5 5
6 6 6
7 7 7
8 8 8
8 8 8
7 7 7
6 6 6
5 5 5
4 4 4
4 4 4
6 6 6
7 7 7
8 8 8
8 8 8
8 8 8
8 8 8
7 7 7
5 5 5
4 4 4
4 4 4
5 5 5
7 7 7
9 9 9
9 9 9
9 9 9
8 8 8
7 7 7
5 5 5
4 4 4
4 4 4
5 5 5
7 7 7
9 9 9
10 10 10
9 9 9
8 8 8
7 7 7
5 5 5
3 3 3
3 3 3
4 4 4
6 6 6
8 8 8
9 9 9
9 9 9
8 8 8
6 6 6
4 4 4
3 3 3
1 1 1
2 2 2
4 4 4
5 5 5
5 5 5
5 5 5
5 5 5
3 3 3
2 2 2
1 1 1
0 0 0
0 0 0
1 1 1
1 1 1
1 1 1
1 1 1
1 1 1
1 1 1
0 0 0
0 0 0
14 14 14
18 18 18
20 20 20
21 21 21
22 22 22
22 22 22
20 20 20
19 19 19
17 17 17
15 15 15
17 17 17
22 22 22
24 24 24
25 25 25
26 26 26
26 26 26
24 24 24
22 22 22
20 20 20
17 17 17
20 20 20
25 25 25
18 18 18
9 9 9
9 9 9
9 9 9
8 8 8
12 12 12
22 22 22
19 19 19
21 21 21
27 27 27
14 14 14
0 0 0
0 0 0
0 0 0
0 0 0
6 6 6
23 23 23
20 20 20
22 22 22
29 29 29
15 15 15
0 0 0
0 0 0
0 0 0
0 0 0
6 6 6
24 24 24
21 21 21
22 22 22
29 29 29
15 15 15
0 0 0
0 0 0
0 0 0
0 0 0
6 6 6
24 24 24
21 21 21
21 21 21
27 27 27
14 14 14
0 0 0
0 0 0
0 0 0
0 0 0
6 6 6
23 23 23
20 20 20
19 19 19
25 25 25
17 17 17
8 8 8
8 8 8
7 7 7
7 7 7
11 11 11
22 22 22
19 19 19
17 17 17
21 21 21
24 24 24
25 25 25
26 26 26
25 25 25
24 24 24
22 22 22
20 20 20
17 17 17
14 14 14
18 18 18
20 20 20
21 21 21
22 22 22
22 22 22
21 21 21
19 19 19
17 17 17
15 15 15
0 0 255
