P3
1 501
255
49 49 49
60 60 60
68 68 68
72 72 72
77 77 77
77 77 77
71 71 71
67 67 67
59 59 59
48 48 48
54 54 54
66 66 66
77 77 77
84 84 84
88 88 88
88 88 88
83 83 83
75 75 75
65 65 65
52 52 52
56 56 56
72 72 72
85 85 85
95 95 95
99 99 99
99 99 99
93 93 93
83 83 83
69 69 69
54 54 54
58 58 58
75 75 75
91 91 91
103 103 103
109 109 109
108 108 108
101 101 101
88 88 88
72 72 72
56 56 56
61 61 61
81 81 81
100 100 100
115 115 115
126 126 126
125 125 125
114 114 114
98 98 98
79 79 79
58 58 58
62 62 62
84 84 84
107 107 107
127 127 127
139 139 139
138 138 138
125 125 125
105 105 105
81 81 81
59 59 59
55 55 55
78 78 78
104 104 104
127 127 127
139 139 139
139 139 139
125 125 125
101 101 101
75 75 75
53 53 53
43 43 43
66 66 66
93 93 93
118 118 118
132 132 132
132 132 132
117 117 117
92 92 92
64 64 64
42 42 42
25 25 25
40 40 40
60 60 60
79 79 79
88 88 88
88 88 88
78 78 78
59 59 59
39 39 39
24 24 24
8 8 8
12 12 12
15 15 15
18 18 18
20 20 20
20 20 20
18 18 18
15 15 15
11 11 11
9 9 9
30 30 30
37 37 37
42 42 42
45 45 45
48 48 48
49 49 49
46 46 46
43 43 43
39 39 39
32 32 32
33 33 33
41 41 41
47 47 47
52 52 52
55 55 55
56 56 56
54 54 54
49 49 49
43 43 43
35 35 35
34 34 34
44 44 44
52 52 52
59 59 59
63 63 63
63 63 63
60 60 60
55 55 55
47 47 47
37 37 37
35 35 35
46 46 46
56 56 56
64 64 64
69 69 69
69 69 69
66 66 66
58 58 58
49 49 49
38 38 38
37 37 37
49 49 49
61 61 61
72 72 72
79 79 79
80 80 80
74 74 74
64 64 64
53 53 53
40 40 40
37 37 37
51 51 51
66 66 66
79 79 79
87 87 87
88 88 88
80 80 80
69 69 69
54 54 54
40 40 40
33 33 33
47 47 47
64 64 64
79 79 79
87 87 87
88 88 88
80 80 80
66 66 66
50 50 50
36 36 36
27 27 27
40 40 40
57 57 57
73 73 73
83 83 83
83 83 83
75 75 75
60 60 60
43 43 43
28 28 28
16 16 16
25 25 25
37 37 37
49 49 49
55 55 55
56 56 56
50 50 50
39 39 39
26 26 26
16 16 16
6 6 6
8 8 8
10 10 10
12 12 12
13 13 13
13 13 13
12 12 12
10 10 10
8 8 8
5 5 5
86 86 86
101 101 101
115 115 115
125 125 125
131 131 131
131 131 131
126 126 126
117 117 117
104 104 104
89 89 89
101 101 101
120 120 120
136 136 136
149 149 149
156 156 156
157 157 157
151 151 151
139 139 139
124 124 124
106 106 106
114 114 114
136 136 136
156 156 156
171 171 171
180 180 180
181 181 181
174 174 174
160 160 160
141 141 141
120 120 120
125 125 125
149 149 149
171 171 171
188 188 188
198 198 198
199 199 199
191 191 191
175 175 175
155 155 155
131 131 131
130 130 130
156 156 156
179 179 179
198 198 198
208 208 208
209 209 209
201 201 201
184 184 184
162 162 162
137 137 137
130 130 130
156 156 156
180 180 180
198 198 198
209 209 209
210 210 210
201 201 201
185 185 185
162 162 162
137 137 137
125 125 125
150 150 150
172 172 172
190 190 190
200 200 200
201 201 201
193 193 193
177 177 177
156 156 156
131 131 131
115 115 115
138 138 138
158 158 158
174 174 174
183 183 183
184 184 184
176 176 176
162 162 162
143 143 143
121 121 121
102 102 102
122 122 122
139 139 139
152 152 152
160 160 160
161 161 161
155 155 155
142 142 142
126 126 126
107 107 107
88 88 88
104 104 104
118 118 118
128 128 128
134 134 134
135 135 135
130 130 130
120 120 120
107 107 107
92 92 92
3 3 3
4 4 4
5 5 5
5 5 5
5 5 5
5 5 5
5 5 5
5 5 5
4 4 4
3 3 3
4 4 4
5 5 5
5 5 5
6 6 6
6 6 6
6 6 6
6 6 6
5 5 5
4 4 4
3 3 3
4 4 4
5 5 5
6 6 6
7 7 7
7 7 7
7 7 7
7 7 7
6 6 6
5 5 5
4 4 4
4 4 4
5 5 5
6 6 6
7 7 7
8 8 8
8 8 8
7 7 7
6 6 6
5 5 5
4 4 4
4 4 4
6 6 6
7 7 7
8 8 8
9 9 9
9 9 9
8 8 8
7 7 7
5 5 5
4 4 4
4 4 4
6 6 6
8 8 8
9 9 9
10 10 10
10 10 10
9 9 9
7 7 7
6 6 6
4 4 4
4 4 4
6 6 6
7 7 7
9 9 9
10 10 10
10 10 10
9 9 9
7 7 7
5 5 5
4 4 4
3 3 3
5 5 5
7 7 7
8 8 8
9 9 9
9 9 9
8 8 8
6 6 6
4 4 4
3 3 3
2 2 2
3 3 3
4 4 4
5 5 5
6 6 6
6 6 6
5 5 5
4 4 4
3 3 3
2 2 2
0 0 0
1 1 1
1 1 1
1 1 1
1 1 1
1 1 1
1 1 1
1 1 1
1 1 1
0 0 0
15 15 15
19 19 19
22 22 22
23 23 23
24 24 24
24 24 24
22 22 22
21 21 21
18 18 18
16 16 16
19 19 19
24 24 24
28 28 28
29 29 29
30 30 30
30 30 30
28 28 28
25 25 25
22 22 22
19 19 19
22 22 22
28 28 28
21 21 21
13 13 13
13 13 13
13 13 13
12 12 12
15 15 15
25 25 25
21 21 21
24 24 24
31 31 31
15 15 15
0 0 0
0 0 0
0 0 0
0 0 0
7 7 7
27 27 27
22 22 22
25 25 25
32 32 32
16 16 16
0 0 0
0 0 0
0 0 0
0 0 0
7 7 7
27 27 27
23 23 23
24 24 24
31 31 31
16 16 16
0 0 0
0 0 0
0 0 0
0 0 0
7 7 7
27 27 27
23 23 23
23 23 23
30 30 30
15 15 15
0 0 0
0 0 0
0 0 0
0 0 0
6 6 6
26 26 26
22 22 22
21 21 21
27 27 27
17 17 17
8 8 8
8 8 8
7 7 7
7 7 7
11 11 11
24 24 24
20 20 20
19 19 19
23 23 23
26 26 26
27 27 27
28 28 28
27 27 27
26 26 26
24 24 24
22 22 22
19 19 19
16 16 16
19 19 19
22 22 22
23 23 23
23 23 23
23 23 23
22 22 22
20 20 20
19 19 19
16 16 16
0 0 255
