P3
1 126
255
58 58 58
79 79 79
84 84 84
78 78 78
56 56 56
69 69 69
98 98 98
107 107 107
96 96 96
66 66 66
71 71 71
113 113 113
133 133 133
112 112 112
69 69 69
59 59 59
111 111 111
138 138 138
110 110 110
57 57 57
17 17 17
36 36 36
45 45 45
36 36 36
17 17 17
35 35 35
49 49 49
53 53 53
50 50 50
38 38 38
42 42 42
61 61 61
68 68 68
63 63 63
45 45 45
43 43 43
70 70 70
84 84 84
73 73 73
47 47 47
36 36 36
69 69 69
87 87 87
71 71 71
39 39 39
11 11 11
23 23 23
29 29 29
24 24 24
12 12 12
99 99 99
134 134 134
147 147 147
136 136 136
103 103 103
134 134 134
185 185 185
204 204 204
189 189 189
140 140 140
146 146 146
204 204 204
226 226 226
208 208 208
153 153 153
135 135 135
187 187 187
207 207 207
191 191 191
142 142 142
101 101 101
138 138 138
151 151 151
140 140 140
106 106 106
4 4 4
6 6 6
6 6 6
5 5 5
4 4 4
5 5 5
7 7 7
8 8 8
7 7 7
5 5 5
5 5 5
8 8 8
9 9 9
8 8 8
5 5 5
4 4 4
8 8 8
10 10 10
8 8 8
4 4 4
1 1 1
3 3 3
3 3 3
2 2 2
1 1 1
20 20 20
27 27 27
28 28 28
25 25 25
20 20 20
27 27 27
1 1 1
0 0 0
0 0 0
24 24 24
29 29 29
0 0 0
0 0 0
0 0 0
26 26 26
26 26 26
0 0 0
0 0 0
0 0 0
24 24 24
20 20 20
25 25 25
26 26 26
24 24 24
19 19 19
0 0 255
