P3
1 501
255
50 50 50
61 61 61
68 68 68
74 74 74
77 77 77
77 77 77
73 73 73
68 68 68
60 60 60
49 49 49
54 54 54
67 67 67
77 77 77
85 85 85
88 88 88
88 88 88
84 84 84
76 76 76
65 65 65
52 52 52
57 57 57
72 72 72
85 85 85
95 95 95
102 102 102
101 101 101
94 94 94
83 83 83
70 70 70
55 55 55
60 60 60
77 77 77
93 93 93
106 106 106
113 113 113
112 112 112
105 105 105
91 91 91
75 75 75
58 58 58
61 61 61
82 82 82
100 100 100
116 116 116
125 125 125
125 125 125
114 114 114
98 98 98
79 79 79
59 59 59
60 60 60
81 81 81
105 105 105
126 126 126
137 137 137
136 136 136
124 124 124
103 103 103
79 79 79
58 58 58
54 54 54
78 78 78
104 104 104
128 128 128
141 141 141
140 140 140
126 126 126
102 102 102
75 75 75
52 52 52
43 43 43
65 65 65
92 92 92
117 117 117
131 131 131
130 130 130
116 116 116
90 90 90
63 63 63
41 41 41
22 22 22
36 36 36
54 54 54
71 71 71
80 80 80
80 80 80
71 71 71
54 54 54
35 35 35
22 22 22
7 7 7
10 10 10
13 13 13
15 15 15
16 16 16
16 16 16
15 15 15
13 13 13
10 10 10
8 8 8
31 31 31
37 37 37
42 42 42
46 46 46
49 49 49
49 49 49
47 47 47
44 44 44
39 39 39
33 33 33
33 33 33
41 41 41
48 48 48
53 53 53
56 56 56
56 56 56
54 54 54
50 50 50
43 43 43
36 36 36
35 35 35
44 44 44
52 52 52
59 59 59
64 64 64
65 65 65
61 61 61
55 55 55
47 47 47
37 37 37
36 36 36
47 47 47
57 57 57
66 66 66
71 71 71
72 72 72
68 68 68
60 60 60
50 50 50
39 39 39
37 37 37
50 50 50
62 62 62
72 72 72
79 79 79
79 79 79
74 74 74
65 65 65
53 53 53
40 40 40
36 36 36
49 49 49
65 65 65
78 78 78
86 86 86
86 86 86
80 80 80
68 68 68
53 53 53
39 39 39
33 33 33
47 47 47
64 64 64
79 79 79
88 88 88
89 89 89
81 81 81
67 67 67
50 50 50
36 36 36
26 26 26
40 40 40
57 57 57
73 73 73
82 82 82
82 82 82
74 74 74
59 59 59
42 42 42
28 28 28
14 14 14
22 22 22
34 34 34
45 45 45
50 50 50
51 51 51
46 46 46
35 35 35
24 24 24
15 15 15
6 6 6
7 7 7
9 9 9
10 10 10
11 11 11
11 11 11
10 10 10
9 9 9
7 7 7
5 5 5
90 90 90
106 106 106
120 120 120
127 127 127
133 133 133
134 134 134
129 129 129
122 122 122
108 108 108
93 93 93
105 105 105
125 125 125
142 142 142
152 152 152
160 160 160
160 160 160
154 154 154
146 146 146
129 129 129
110 110 110
119 119 119
142 142 142
163 163 163
175 175 175
184 184 184
185 185 185
178 178 178
167 167 167
148 148 148
125 125 125
127 127 127
152 152 152
175 175 175
188 188 188
198 198 198
199 199 199
191 191 191
180 180 180
158 158 158
133 133 133
133 133 133
159 159 159
183 183 183
198 198 198
208 208 208
209 209 209
201 201 201
189 189 189
165 165 165
139 139 139
133 133 133
159 159 159
184 184 184
198 198 198
209 209 209
210 210 210
201 201 201
189 189 189
166 166 166
140 140 140
128 128 128
153 153 153
176 176 176
190 190 190
200 200 200
201 201 201
193 193 193
181 181 181
159 159 159
134 134 134
121 121 121
144 144 144
166 166 166
178 178 178
187 187 187
188 188 188
180 180 180
170 170 170
150 150 150
126 126 126
107 107 107
127 127 127
145 145 145
156 156 156
163 163 163
164 164 164
158 158 158
149 149 149
132 132 132
112 112 112
92 92 92
108 108 108
123 123 123
131 131 131
137 137 137
137 137 137
132 132 132
125 125 125
111 111 111
95 95 95
3 3 3
4 4 4
5 5 5
5 5 5
5 5 5
5 5 5
5 5 5
5 5 5
4 4 4
3 3 3
4 4 4
5 5 5
5 5 5
6 6 6
6 6 6
6 6 6
6 6 6
5 5 5
4 4 4
4 4 4
4 4 4
5 5 5
6 6 6
7 7 7
7 7 7
7 7 7
7 7 7
6 6 6
5 5 5
4 4 4
4 4 4
6 6 6
7 7 7
8 8 8
8 8 8
8 8 8
7 7 7
6 6 6
5 5 5
4 4 4
4 4 4
6 6 6
7 7 7
8 8 8
9 9 9
9 9 9
8 8 8
7 7 7
5 5 5
4 4 4
4 4 4
6 6 6
8 8 8
9 9 9
10 10 10
10 10 10
9 9 9
7 7 7
5 5 5
4 4 4
4 4 4
6 6 6
7 7 7
9 9 9
10 10 10
10 10 10
9 9 9
7 7 7
5 5 5
4 4 4
3 3 3
5 5 5
6 6 6
8 8 8
9 9 9
9 9 9
8 8 8
6 6 6
4 4 4
3 3 3
1 1 1
3 3 3
4 4 4
5 5 5
6 6 6
6 6 6
5 5 5
4 4 4
2 2 2
1 1 1
0 0 0
1 1 1
1 1 1
1 1 1
1 1 1
1 1 1
1 1 1
1 1 1
1 1 1
0 0 0
15 15 15
19 19 19
22 22 22
23 23 23
24 24 24
24 24 24
22 22 22
21 21 21
18 18 18
16 16 16
19 19 19
24 24 24
28 28 28
29 29 29
30 30 30
30 30 30
28 28 28
25 25 25
22 22 22
19 19 19
22 22 22
28 28 28
21 21 21
13 13 13
13 13 13
13 13 13
12 12 12
15 15 15
25 25 25
21 21 21
23 23 23
30 30 30
15 15 15
0 0 0
0 0 0
0 0 0
0 0 0
7 7 7
26 26 26
22 22 22
24 24 24
32 32 32
16 16 16
0 0 0
0 0 0
0 0 0
0 0 0
7 7 7
27 27 27
23 23 23
24 24 24
31 31 31
16 16 16
0 0 0
0 0 0
0 0 0
0 0 0
7 7 7
27 27 27
23 23 23
23 23 23
30 30 30
15 15 15
0 0 0
0 0 0
0 0 0
0 0 0
6 6 6
26 26 26
22 22 22
21 21 21
27 27 27
17 17 17
8 8 8
8 8 8
8 8 8
7 7 7
11 11 11
24 24 24
21 21 21
19 19 19
23 23 23
26 26 26
27 27 27
28 28 28
27 27 27
26 26 26
24 24 24
21 21 21
19 19 19
16 16 16
19 19 19
22 22 22
23 23 23
24 24 24
23 23 23
22 22 22
21 21 21
19 19 19
16 16 16
0 0 255
