P3
1 126
255
42 42 42
62 62 62
58 58 58
36 36 36
0 0 0
53 53 53
94 94 94
83 83 83
39 39 39
0 0 0
46 46 46
116 116 116
97 97 97
29 29 29
0 0 0
0 0 0
0 0 0
0 0 0
0 0 0
0 0 0
0 0 0
0 0 0
0 0 0
0 0 0
0 0 0
29 29 29
41 41 41
37 37 37
23 23 23
11 11 11
37 37 37
61 61 61
53 53 53
25 25 25
10 10 10
29 29 29
73 73 73
60 60 60
19 19 19
5 5 5
0 0 0
0 0 0
0 0 0
0 0 0
0 0 0
0 0 0
0 0 0
0 0 0
0 0 0
0 0 0
101 101 101
145 145 145
132 132 132
78 78 78
0 0 0
143 143 143
210 210 210
193 193 193
112 112 112
0 0 0
131 131 131
192 192 192
178 178 178
105 105 105
0 0 0
79 79 79
112 112 112
105 105 105
66 66 66
0 0 0
39 39 39
53 53 53
50 50 50
34 34 34
9 9 9
3 3 3
4 4 4
4 4 4
2 2 2
1 1 1
4 4 4
7 7 7
6 6 6
3 3 3
1 1 1
3 3 3
8 8 8
7 7 7
2 2 2
0 0 0
0 0 0
0 0 0
0 0 0
0 0 0
0 0 0
0 0 0
0 0 0
0 0 0
0 0 0
0 0 0
12 12 12
15 15 15
12 12 12
7 7 7
0 0 0
15 15 15
0 0 0
0 0 0
9 9 9
0 0 0
13 13 13
0 0 0
0 0 0
8 8 8
0 0 0
8 8 8
10 10 10
9 9 9
5 5 5
0 0 0
4 4 4
5 5 5
5 5 5
3 3 3
1 1 1
0 0 255
