P3
1 126
255
42 42 42
62 62 62
58 58 58
36 36 36
0 0 0
53 53 53
94 94 94
83 83 83
39 39 39
0 0 0
46 46 46
116 116 116
97 97 97
29 29 29
0 0 0
0 0 0
0 0 0
0 0 0
0 0 0
0 0 0
0 0 0
0 0 0
0 0 0
0 0 0
0 0 0
7 7 7
10 10 10
9 9 9
6 6 6
2 2 2
9 9 9
16 16 16
14 14 14
6 6 6
2 2 2
7 7 7
19 19 19
16 16 16
5 5 5
1 1 1
0 0 0
0 0 0
0 0 0
0 0 0
0 0 0
0 0 0
0 0 0
0 0 0
0 0 0
0 0 0
99 99 99
143 143 143
131 131 131
78 78 78
0 0 0
139 139 139
207 207 207
191 191 191
111 111 111
0 0 0
129 129 129
191 191 191
177 177 177
105 105 105
0 0 0
78 78 78
112 112 112
105 105 105
65 65 65
0 0 0
39 39 39
53 53 53
50 50 50
34 34 34
9 9 9
40 40 40
61 61 61
56 56 56
34 34 34
16 16 16
54 54 54
94 94 94
82 82 82
39 39 39
16 16 16
46 46 46
110 110 110
92 92 92
30 30 30
9 9 9
3 3 3
4 4 4
4 4 4
2 2 2
1 1 1
0 0 0
0 0 0
0 0 0
0 0 0
1 1 1
13 13 13
15 15 15
12 12 12
6 6 6
0 0 0
16 16 16
0 0 0
0 0 0
8 8 8
0 0 0
14 14 14
0 0 0
0 0 0
7 7 7
0 0 0
9 9 9
11 11 11
9 9 9
5 5 5
0 0 0
5 5 5
5 5 5
5 5 5
3 3 3
0 0 0
0 0 255
