P3
1 501
255
49 49 49
60 60 60
68 68 68
73 73 73
79 79 79
79 79 79
74 74 74
70 70 70
62 62 62
51 51 51
54 54 54
66 66 66
77 77 77
85 85 85
90 90 90
90 90 90
87 87 87
79 79 79
69 69 69
57 57 57
56 56 56
71 71 71
85 85 85
96 96 96
101 101 101
102 102 102
97 97 97
88 88 88
75 75 75
59 59 59
57 57 57
74 74 74
91 91 91
104 104 104
111 111 111
112 112 112
106 106 106
94 94 94
78 78 78
61 61 61
60 60 60
81 81 81
100 100 100
117 117 117
128 128 128
129 129 129
119 119 119
104 104 104
85 85 85
64 64 64
61 61 61
83 83 83
107 107 107
128 128 128
141 141 141
142 142 142
130 130 130
111 111 111
87 87 87
65 65 65
55 55 55
77 77 77
104 104 104
128 128 128
142 142 142
142 142 142
130 130 130
107 107 107
81 81 81
58 58 58
44 44 44
66 66 66
94 94 94
119 119 119
134 134 134
135 135 135
121 121 121
96 96 96
69 69 69
46 46 46
26 26 26
40 40 40
61 61 61
80 80 80
90 90 90
90 90 90
81 81 81
62 62 62
42 42 42
26 26 26
10 10 10
13 13 13
16 16 16
19 19 19
21 21 21
21 21 21
20 20 20
17 17 17
13 13 13
9 9 9
8 8 8
11 11 11
12 12 12
13 13 13
14 14 14
14 14 14
13 13 13
12 12 12
11 11 11
9 9 9
9 9 9
12 12 12
14 14 14
15 15 15
16 16 16
16 16 16
15 15 15
14 14 14
12 12 12
10 10 10
10 10 10
13 13 13
15 15 15
17 17 17
18 18 18
18 18 18
17 17 17
16 16 16
13 13 13
11 11 11
10 10 10
13 13 13
16 16 16
18 18 18
20 20 20
20 20 20
19 19 19
17 17 17
14 14 14
11 11 11
11 11 11
14 14 14
18 18 18
20 20 20
22 22 22
23 23 23
21 21 21
18 18 18
15 15 15
11 11 11
11 11 11
15 15 15
19 19 19
22 22 22
25 25 25
25 25 25
23 23 23
20 20 20
16 16 16
12 12 12
10 10 10
14 14 14
18 18 18
22 22 22
25 25 25
25 25 25
23 23 23
19 19 19
14 14 14
10 10 10
8 8 8
12 12 12
16 16 16
21 21 21
23 23 23
23 23 23
21 21 21
17 17 17
12 12 12
8 8 8
5 5 5
7 7 7
11 11 11
14 14 14
16 16 16
16 16 16
14 14 14
11 11 11
8 8 8
5 5 5
2 2 2
3 3 3
3 3 3
4 4 4
4 4 4
4 4 4
4 4 4
4 4 4
3 3 3
2 2 2
90 90 90
106 106 106
121 121 121
131 131 131
138 138 138
138 138 138
133 133 133
123 123 123
109 109 109
94 94 94
104 104 104
124 124 124
142 142 142
156 156 156
163 163 163
164 164 164
158 158 158
146 146 146
129 129 129
110 110 110
117 117 117
140 140 140
161 161 161
177 177 177
186 186 186
187 187 187
180 180 180
165 165 165
146 146 146
123 123 123
127 127 127
152 152 152
175 175 175
193 193 193
203 203 203
204 204 204
196 196 196
180 180 180
158 158 158
133 133 133
132 132 132
158 158 158
182 182 182
201 201 201
212 212 212
213 213 213
204 204 204
188 188 188
165 165 165
139 139 139
132 132 132
158 158 158
182 182 182
200 200 200
211 211 211
212 212 212
204 204 204
187 187 187
164 164 164
139 139 139
126 126 126
151 151 151
173 173 173
191 191 191
201 201 201
202 202 202
194 194 194
178 178 178
157 157 157
132 132 132
116 116 116
138 138 138
158 158 158
174 174 174
182 182 182
183 183 183
176 176 176
162 162 162
143 143 143
122 122 122
103 103 103
121 121 121
138 138 138
151 151 151
159 159 159
160 160 160
153 153 153
142 142 142
126 126 126
107 107 107
88 88 88
103 103 103
117 117 117
127 127 127
133 133 133
133 133 133
128 128 128
119 119 119
106 106 106
91 91 91
48 48 48
58 58 58
65 65 65
68 68 68
73 73 73
72 72 72
67 67 67
63 63 63
55 55 55
45 45 45
53 53 53
64 64 64
73 73 73
80 80 80
83 83 83
82 82 82
78 78 78
70 70 70
60 60 60
49 49 49
55 55 55
69 69 69
81 81 81
90 90 90
94 94 94
93 93 93
87 87 87
77 77 77
65 65 65
51 51 51
57 57 57
73 73 73
87 87 87
97 97 97
102 102 102
101 101 101
94 94 94
82 82 82
68 68 68
52 52 52
59 59 59
78 78 78
95 95 95
109 109 109
117 117 117
116 116 116
106 106 106
91 91 91
73 73 73
55 55 55
60 60 60
81 81 81
101 101 101
118 118 118
129 129 129
128 128 128
116 116 116
97 97 97
75 75 75
55 55 55
54 54 54
75 75 75
98 98 98
118 118 118
129 129 129
128 128 128
116 116 116
94 94 94
70 70 70
50 50 50
43 43 43
63 63 63
88 88 88
110 110 110
122 122 122
121 121 121
108 108 108
85 85 85
60 60 60
40 40 40
25 25 25
39 39 39
57 57 57
74 74 74
82 82 82
82 82 82
73 73 73
55 55 55
37 37 37
24 24 24
9 9 9
13 13 13
17 17 17
20 20 20
21 21 21
21 21 21
19 19 19
16 16 16
13 13 13
10 10 10
17 17 17
21 21 21
23 23 23
25 25 25
25 25 25
25 25 25
24 24 24
22 22 22
20 20 20
17 17 17
20 20 20
25 25 25
28 28 28
30 30 30
30 30 30
30 30 30
28 28 28
26 26 26
23 23 23
20 20 20
23 23 23
29 29 29
19 19 19
9 9 9
9 9 9
9 9 9
8 8 8
12 12 12
26 26 26
22 22 22
25 25 25
32 32 32
16 16 16
0 0 0
0 0 0
0 0 0
0 0 0
7 7 7
28 28 28
24 24 24
27 27 27
34 34 34
17 17 17
0 0 0
0 0 0
0 0 0
0 0 0
7 7 7
29 29 29
25 25 25
27 27 27
34 34 34
17 17 17
0 0 0
0 0 0
0 0 0
0 0 0
8 8 8
30 30 30
25 25 25
26 26 26
33 33 33
17 17 17
0 0 0
0 0 0
0 0 0
0 0 0
8 8 8
29 29 29
24 24 24
24 24 24
31 31 31
24 24 24
15 15 15
16 16 16
15 15 15
14 14 14
17 17 17
27 27 27
23 23 23
21 21 21
27 27 27
31 31 31
33 33 33
34 34 34
33 33 33
31 31 31
29 29 29
25 25 25
21 21 21
16 16 16
21 21 21
24 24 24
26 26 26
26 26 26
26 26 26
25 25 25
23 23 23
20 20 20
17 17 17
0 0 255
