P3
1 501
255
50 50 50
61 61 61
69 69 69
75 75 75
79 79 79
79 79 79
76 76 76
71 71 71
63 63 63
53 53 53
54 54 54
67 67 67
77 77 77
86 86 86
90 90 90
91 91 91
87 87 87
80 80 80
70 70 70
57 57 57
57 57 57
72 72 72
85 85 85
96 96 96
104 104 104
104 104 104
98 98 98
88 88 88
75 75 75
60 60 60
60 60 60
77 77 77
94 94 94
107 107 107
115 115 115
116 116 116
109 109 109
97 97 97
81 81 81
63 63 63
61 61 61
81 81 81
100 100 100
117 117 117
127 127 127
128 128 128
119 119 119
104 104 104
86 86 86
65 65 65
59 59 59
81 81 81
105 105 105
127 127 127
139 139 139
140 140 140
129 129 129
109 109 109
85 85 85
63 63 63
54 54 54
77 77 77
104 104 104
129 129 129
143 143 143
144 144 144
131 131 131
108 108 108
81 81 81
57 57 57
43 43 43
65 65 65
92 92 92
118 118 118
133 133 133
133 133 133
120 120 120
95 95 95
68 68 68
45 45 45
23 23 23
37 37 37
55 55 55
73 73 73
82 82 82
82 82 82
74 74 74
57 57 57
38 38 38
24 24 24
9 9 9
12 12 12
14 14 14
16 16 16
18 18 18
18 18 18
17 17 17
15 15 15
12 12 12
8 8 8
9 9 9
11 11 11
12 12 12
13 13 13
14 14 14
14 14 14
13 13 13
12 12 12
11 11 11
9 9 9
9 9 9
12 12 12
14 14 14
15 15 15
16 16 16
16 16 16
15 15 15
14 14 14
12 12 12
10 10 10
10 10 10
13 13 13
15 15 15
17 17 17
18 18 18
18 18 18
17 17 17
16 16 16
13 13 13
11 11 11
11 11 11
14 14 14
16 16 16
19 19 19
20 20 20
20 20 20
19 19 19
17 17 17
14 14 14
11 11 11
11 11 11
14 14 14
18 18 18
21 21 21
22 22 22
23 23 23
21 21 21
18 18 18
15 15 15
12 12 12
11 11 11
14 14 14
18 18 18
22 22 22
24 24 24
24 24 24
23 23 23
19 19 19
15 15 15
11 11 11
10 10 10
14 14 14
18 18 18
22 22 22
25 25 25
25 25 25
23 23 23
19 19 19
14 14 14
10 10 10
8 8 8
11 11 11
16 16 16
20 20 20
23 23 23
23 23 23
21 21 21
17 17 17
12 12 12
8 8 8
4 4 4
7 7 7
10 10 10
13 13 13
14 14 14
15 15 15
13 13 13
10 10 10
7 7 7
5 5 5
2 2 2
3 3 3
3 3 3
3 3 3
4 4 4
4 4 4
4 4 4
3 3 3
3 3 3
2 2 2
94 94 94
111 111 111
126 126 126
134 134 134
140 140 140
141 141 141
135 135 135
128 128 128
114 114 114
97 97 97
109 109 109
130 130 130
148 148 148
159 159 159
167 167 167
167 167 167
161 161 161
152 152 152
134 134 134
114 114 114
122 122 122
147 147 147
168 168 168
181 181 181
190 190 190
191 191 191
184 184 184
173 173 173
152 152 152
129 129 129
129 129 129
155 155 155
179 179 179
193 193 193
203 203 203
204 204 204
196 196 196
184 184 184
162 162 162
136 136 136
135 135 135
162 162 162
187 187 187
201 201 201
212 212 212
213 213 213
204 204 204
192 192 192
168 168 168
142 142 142
134 134 134
161 161 161
186 186 186
200 200 200
211 211 211
212 212 212
204 204 204
191 191 191
168 168 168
141 141 141
129 129 129
154 154 154
177 177 177
191 191 191
201 201 201
202 202 202
194 194 194
182 182 182
160 160 160
135 135 135
121 121 121
144 144 144
166 166 166
178 178 178
187 187 187
188 188 188
180 180 180
170 170 170
150 150 150
127 127 127
107 107 107
127 127 127
145 145 145
155 155 155
162 162 162
163 163 163
157 157 157
148 148 148
131 131 131
112 112 112
91 91 91
107 107 107
122 122 122
129 129 129
135 135 135
136 136 136
131 131 131
124 124 124
110 110 110
95 95 95
49 49 49
59 59 59
65 65 65
70 70 70
73 73 73
72 72 72
69 69 69
63 63 63
56 56 56
46 46 46
53 53 53
65 65 65
74 74 74
80 80 80
83 83 83
83 83 83
78 78 78
71 71 71
61 61 61
49 49 49
56 56 56
70 70 70
82 82 82
90 90 90
96 96 96
95 95 95
88 88 88
78 78 78
65 65 65
52 52 52
59 59 59
75 75 75
89 89 89
100 100 100
106 106 106
105 105 105
98 98 98
85 85 85
70 70 70
54 54 54
60 60 60
79 79 79
96 96 96
109 109 109
117 117 117
116 116 116
106 106 106
91 91 91
74 74 74
55 55 55
59 59 59
78 78 78
100 100 100
118 118 118
127 127 127
126 126 126
115 115 115
95 95 95
73 73 73
54 54 54
53 53 53
75 75 75
99 99 99
119 119 119
130 130 130
129 129 129
116 116 116
95 95 95
70 70 70
49 49 49
42 42 42
62 62 62
87 87 87
109 109 109
121 121 121
120 120 120
107 107 107
84 84 84
59 59 59
39 39 39
23 23 23
36 36 36
53 53 53
68 68 68
75 75 75
75 75 75
66 66 66
51 51 51
34 34 34
22 22 22
9 9 9
12 12 12
15 15 15
17 17 17
18 18 18
17 17 17
16 16 16
14 14 14
12 12 12
9 9 9
17 17 17
21 21 21
23 23 23
25 25 25
25 25 25
25 25 25
24 24 24
22 22 22
20 20 20
17 17 17
20 20 20
25 25 25
28 28 28
29 29 29
30 30 30
30 30 30
28 28 28
26 26 26
23 23 23
20 20 20
23 23 23
29 29 29
19 19 19
9 9 9
9 9 9
9 9 9
8 8 8
13 13 13
26 26 26
23 23 23
25 25 25
32 32 32
16 16 16
0 0 0
0 0 0
0 0 0
0 0 0
7 7 7
28 28 28
24 24 24
26 26 26
34 34 34
17 17 17
0 0 0
0 0 0
0 0 0
0 0 0
8 8 8
29 29 29
25 25 25
27 27 27
34 34 34
17 17 17
0 0 0
0 0 0
0 0 0
0 0 0
8 8 8
29 29 29
25 25 25
26 26 26
33 33 33
17 17 17
0 0 0
0 0 0
0 0 0
0 0 0
8 8 8
29 29 29
25 25 25
24 24 24
31 31 31
24 24 24
15 15 15
16 16 16
15 15 15
14 14 14
17 17 17
27 27 27
23 23 23
21 21 21
27 27 27
31 31 31
33 33 33
34 34 34
33 33 33
31 31 31
28 28 28
24 24 24
20 20 20
16 16 16
21 21 21
24 24 24
25 25 25
26 26 26
26 26 26
25 25 25
23 23 23
20 20 20
17 17 17
0 0 255
