P3
1 125
255
2 2 2
3 3 3
5 5 5
5 5 5
0 0 0
1 1 1
4 4 4
6 6 6
6 6 6
0 0 0
0 0 0
1 1 1
3 3 3
3 3 3
0 0 0
0 0 0
0 0 0
0 0 0
0 0 0
0 0 0
0 0 0
0 0 0
0 0 0
0 0 0
0 0 0
0 0 0
0 0 0
0 0 0
0 0 0
0 0 0
0 0 0
0 0 0
1 1 1
1 1 1
0 0 0
0 0 0
0 0 0
0 0 0
0 0 0
0 0 0
0 0 0
0 0 0
0 0 0
0 0 0
0 0 0
0 0 0
0 0 0
0 0 0
0 0 0
0 0 0
3 3 3
5 5 5
8 8 8
8 8 8
0 0 0
5 5 5
10 10 10
16 16 16
17 17 17
0 0 0
7 7 7
16 16 16
28 28 28
30 30 30
0 0 0
8 8 8
17 17 17
30 30 30
33 33 33
0 0 0
6 6 6
12 12 12
20 20 20
22 22 22
6 6 6
1 1 1
2 2 2
4 4 4
4 4 4
2 2 2
1 1 1
4 4 4
11 11 11
12 12 12
5 5 5
1 1 1
4 4 4
28 28 28
50 50 50
6 6 6
0 0 0
0 0 0
0 0 0
0 0 0
0 0 0
0 0 0
0 0 0
0 0 0
0 0 0
0 0 0
1 1 1
1 1 1
1 1 1
0 0 0
0 0 0
1 1 1
2 2 2
2 2 2
1 1 1
0 0 0
1 1 1
2 2 2
2 2 2
1 1 1
0 0 0
1 1 1
2 2 2
1 1 1
1 1 1
0 0 0
0 0 0
1 1 1
1 1 1
0 0 0
0 0 255
