P3
1 126
255
58 58 58
79 79 79
86 86 86
81 81 81
61 61 61
68 68 68
98 98 98
110 110 110
101 101 101
72 72 72
71 71 71
114 114 114
136 136 136
117 117 117
75 75 75
59 59 59
112 112 112
140 140 140
114 114 114
62 62 62
18 18 18
37 37 37
47 47 47
38 38 38
19 19 19
10 10 10
14 14 14
15 15 15
14 14 14
11 11 11
12 12 12
17 17 17
19 19 19
18 18 18
13 13 13
12 12 12
20 20 20
24 24 24
21 21 21
13 13 13
10 10 10
19 19 19
24 24 24
20 20 20
11 11 11
4 4 4
7 7 7
9 9 9
7 7 7
4 4 4
104 104 104
141 141 141
154 154 154
143 143 143
108 108 108
137 137 137
190 190 190
210 210 210
194 194 194
144 144 144
148 148 148
206 206 206
229 229 229
211 211 211
155 155 155
136 136 136
187 187 187
207 207 207
191 191 191
142 142 142
101 101 101
136 136 136
149 149 149
139 139 139
105 105 105
57 57 57
75 75 75
79 79 79
73 73 73
53 53 53
67 67 67
93 93 93
101 101 101
90 90 90
62 62 62
69 69 69
107 107 107
124 124 124
103 103 103
64 64 64
58 58 58
104 104 104
127 127 127
101 101 101
53 53 53
18 18 18
36 36 36
44 44 44
35 35 35
18 18 18
22 22 22
27 27 27
28 28 28
26 26 26
21 21 21
28 28 28
0 0 0
0 0 0
0 0 0
26 26 26
32 32 32
0 0 0
0 0 0
0 0 0
28 28 28
30 30 30
1 1 1
0 0 0
0 0 0
27 27 27
22 22 22
29 29 29
31 31 31
28 28 28
21 21 21
0 0 255
