P3
10 10
255
9 7 7
10 9 8
13 12 10
15 14 12
17 16 14
18 16 14
17 15 14
16 14 12
13 12 10
10 9 8
16 15 14
20 19 18
29 28 27
40 38 37
47 46 44
50 48 46
48 45 44
40 38 36
30 28 27
21 19 18
33 32 31
42 41 39
62 62 59
85 84 81
101 100 97
108 105 103
102 99 97
86 83 81
64 61 59
44 40 39
48 48 46
60 60 57
85 85 82
111 110 107
131 129 126
138 136 133
132 128 126
113 109 107
88 83 81
63 58 57
57 57 54
68 68 65
92 92 89
116 116 112
134 133 130
141 138 136
136 132 129
119 114 112
96 90 88
72 66 65
60 61 58
71 71 68
92 92 89
112 112 108
128 126 123
134 131 128
129 125 123
115 110 108
96 90 88
75 69 67
60 61 58
70 70 67
88 88 85
105 104 101
117 115 112
121 119 116
118 114 112
107 102 100
92 86 84
74 68 66
58 59 56
66 67 63
82 82 79
95 95 92
105 104 101
110 107 104
107 103 101
98 93 91
85 80 78
70 64 63
55 56 53
62 63 60
75 75 72
86 85 83
94 92 90
97 95 93
95 92 90
88 84 82
78 73 72
66 61 59
52 52 50
58 58 56
69 68 66
77 76 74
82 81 79
85 83 81
83 81 79
78 75 74
71 67 66
61 56 55
