P3
10 10
255
10 8 7
11 10 9
14 13 12
18 17 15
20 19 17
21 20 18
21 19 17
18 16 15
15 13 12
11 10 9
18 16 15
22 21 20
32 32 30
44 43 41
53 51 49
56 54 52
53 51 49
45 42 41
33 31 30
22 21 20
35 34 32
44 43 41
65 65 62
88 87 85
106 104 102
112 110 108
107 104 102
90 86 85
67 63 62
46 42 41
49 49 47
60 60 58
85 85 82
111 110 107
131 129 126
138 136 133
132 128 126
113 109 107
88 83 81
63 59 57
58 58 55
69 70 66
93 93 89
117 116 113
135 133 130
142 139 136
136 132 130
119 114 112
97 91 89
73 67 66
60 61 58
71 72 68
93 93 89
113 112 109
128 127 124
135 132 129
130 126 123
116 110 108
97 91 89
75 69 68
59 59 56
68 69 65
86 87 83
103 102 99
115 113 110
120 117 114
116 112 110
106 100 98
90 84 83
72 66 65
57 57 54
65 65 62
80 80 77
94 93 90
103 101 99
107 104 101
104 101 98
96 92 90
84 78 77
68 63 62
55 55 52
62 62 59
75 75 72
86 85 82
93 92 89
96 94 91
94 91 89
88 84 82
78 73 72
65 60 59
51 51 49
57 57 55
68 68 65
76 75 73
82 80 78
84 82 80
82 80 78
77 74 73
70 66 65
60 56 55
