P3
10 10
255
91 92 89
99 100 97
115 116 112
126 127 123
132 134 130
136 137 133
133 135 130
127 129 124
117 118 114
102 103 100
99 99 97
108 108 106
125 126 122
138 139 135
145 147 142
149 150 146
147 148 143
140 141 137
128 129 125
112 112 109
114 114 111
125 125 122
145 146 142
161 161 157
170 171 167
175 176 171
172 173 168
164 164 160
150 150 146
130 130 127
125 124 122
137 136 134
160 160 156
178 177 174
189 189 185
194 194 190
191 191 186
181 181 177
165 165 161
143 142 139
131 130 128
144 143 141
169 168 165
189 187 184
201 199 196
206 205 201
203 201 198
193 191 188
175 174 171
151 150 147
134 133 131
148 146 144
174 171 169
194 191 188
206 203 200
212 209 206
208 205 202
198 195 192
180 177 174
155 153 150
132 130 128
145 143 141
171 167 165
190 186 184
202 198 195
208 204 201
204 200 197
194 190 187
176 173 170
152 149 147
126 123 122
138 135 133
162 158 156
180 175 173
192 186 184
197 192 189
194 188 186
184 179 177
168 163 161
145 141 139
116 112 111
127 123 121
148 143 141
164 158 156
174 168 166
179 172 170
176 169 167
167 161 159
153 147 146
132 128 126
101 98 96
111 106 105
129 123 122
142 135 134
150 143 141
154 147 145
151 144 142
144 138 136
132 126 125
115 110 109
