P3
10 10
255
16 16 14
19 18 16
22 21 19
25 22 21
26 23 21
26 23 22
25 23 21
24 22 20
21 20 18
18 17 16
19 17 16
21 19 18
25 23 21
28 25 23
29 25 23
30 25 24
29 25 23
27 23 21
24 21 19
20 19 17
22 20 18
25 22 21
28 23 22
26 20 18
24 18 16
24 18 16
24 17 16
23 17 16
24 20 19
24 21 19
25 22 20
28 25 23
26 22 21
14 10 9
8 4 4
8 4 4
7 3 3
10 6 6
20 17 15
26 23 21
26 24 22
30 27 25
25 23 21
8 7 7
0 0 0
0 0 0
0 0 0
4 3 3
18 16 15
27 24 22
27 24 22
30 28 25
26 24 22
8 8 7
0 0 0
0 0 0
0 0 0
4 3 3
18 17 15
27 25 23
26 24 22
29 27 25
25 23 21
8 8 7
0 0 0
0 0 0
0 0 0
3 3 3
18 17 15
26 25 22
24 23 20
27 26 23
24 24 21
11 12 10
4 6 4
4 6 4
4 6 4
7 8 6
18 18 16
25 24 21
22 20 18
24 23 21
25 25 22
21 23 19
19 21 17
20 21 18
19 21 17
19 20 17
22 22 19
23 22 20
19 17 16
21 19 18
24 23 21
26 25 23
27 27 24
28 27 24
27 26 23
25 24 22
23 22 20
20 19 17
