P3
10 10
255
88 88 86
95 96 93
110 111 107
122 123 119
130 131 127
133 135 130
131 132 128
123 125 121
112 113 109
98 99 96
95 95 93
104 104 101
120 121 117
133 134 130
143 144 139
146 147 143
144 145 140
135 137 132
123 124 120
107 108 105
109 109 107
119 119 117
139 139 136
155 156 152
167 167 163
171 172 167
168 169 164
158 159 155
143 144 140
124 125 121
121 120 118
133 132 129
155 155 151
174 173 170
187 187 182
192 192 188
189 188 184
178 177 173
160 160 156
139 138 135
129 128 126
142 140 138
166 165 162
187 185 182
201 199 196
206 205 201
203 201 198
191 189 186
171 170 167
148 147 144
132 130 128
145 143 141
170 168 165
191 189 186
206 203 200
212 209 206
208 205 202
196 193 190
176 173 171
152 150 147
130 127 126
142 140 138
167 164 161
188 184 181
202 198 195
208 204 201
204 200 197
192 188 185
173 169 167
149 146 144
122 119 118
134 131 129
157 153 151
176 171 169
190 184 182
195 189 187
192 186 184
180 175 173
162 158 156
140 137 135
111 108 106
122 118 116
142 137 135
159 153 151
171 164 162
175 169 166
172 166 164
162 156 154
146 141 139
127 123 121
97 94 92
106 102 101
123 118 116
137 131 130
147 140 139
151 144 142
148 141 140
140 133 132
127 121 119
110 106 104
