P3
10 10
255
9 0 0
11 1 0
15 1 1
18 1 1
20 1 1
21 1 1
20 1 1
17 1 1
14 1 1
11 1 0
17 1 1
22 1 1
32 2 2
42 3 3
49 4 3
51 4 3
48 4 3
41 3 3
30 2 2
21 1 1
34 2 2
43 3 3
62 5 4
82 6 6
97 7 7
102 8 7
96 7 7
80 6 6
59 4 4
40 3 3
48 3 3
59 4 4
81 6 6
104 8 7
120 9 9
125 9 9
118 9 9
101 8 7
77 6 5
55 4 4
57 4 4
67 5 5
89 7 6
109 8 8
124 9 9
129 10 9
122 9 9
106 8 8
84 6 6
63 5 4
60 4 4
70 5 5
89 7 6
106 8 8
118 9 9
123 9 9
117 9 8
102 8 7
84 6 6
65 5 4
58 4 4
67 5 5
83 6 6
97 7 7
106 8 8
109 8 8
105 8 8
93 7 7
79 6 6
62 5 4
56 4 4
64 5 4
78 6 5
89 7 6
96 7 7
98 7 7
94 7 7
85 6 6
73 5 5
59 4 4
54 4 4
60 4 4
72 5 5
81 6 6
87 6 6
88 7 6
85 6 6
78 6 5
68 5 5
56 4 4
50 4 3
56 4 4
65 5 4
72 5 5
76 6 5
78 6 5
75 6 5
69 5 5
62 5 4
52 4 4
