P3
10 10
255
2 6 2
2 7 2
3 9 3
4 11 3
4 12 4
4 13 4
4 13 4
4 11 3
3 9 3
2 7 2
3 11 3
4 14 4
6 20 6
8 27 9
10 32 10
10 34 11
10 33 11
8 28 9
6 21 7
4 14 4
6 21 7
8 27 9
12 40 13
15 54 18
18 65 21
20 69 23
19 66 22
16 56 18
12 42 13
8 28 9
9 30 10
11 37 12
15 52 17
19 68 22
23 81 26
24 85 28
23 82 27
20 70 23
16 55 18
11 39 13
10 35 11
12 42 14
16 57 19
20 72 23
23 83 27
25 88 29
24 84 28
21 74 24
17 60 20
13 45 15
11 37 12
13 44 14
16 57 19
20 69 23
22 79 26
24 83 27
23 80 26
20 72 23
17 60 20
13 47 15
10 36 12
12 42 13
15 53 17
18 63 21
20 71 23
21 74 24
21 72 24
19 66 21
16 56 18
13 45 14
10 35 11
11 40 13
14 49 16
17 58 19
18 63 21
19 66 22
18 65 21
17 60 19
15 52 17
12 43 14
10 33 11
11 38 12
13 46 15
15 53 17
16 57 19
17 59 19
17 58 19
16 55 18
14 48 16
12 41 13
9 31 10
10 35 11
12 42 13
13 47 15
14 50 16
15 52 17
15 51 17
14 48 16
12 44 14
11 37 12
