P3
10 10
255
9 0 0
10 1 0
13 1 1
16 1 1
17 1 1
17 1 1
17 1 1
15 1 1
13 1 0
11 1 0
16 1 1
20 1 1
29 2 2
38 3 2
44 3 3
46 3 3
44 3 3
37 3 2
28 2 2
19 1 1
32 2 2
41 3 3
59 4 4
79 6 6
93 7 7
98 7 7
92 7 7
77 6 5
57 4 4
38 3 2
48 3 3
58 4 4
81 6 6
103 8 7
120 9 9
125 9 9
118 9 9
100 8 7
77 6 5
54 4 4
56 4 4
66 5 5
88 7 6
109 8 8
124 9 9
128 10 9
122 9 9
105 8 8
83 6 6
62 5 4
59 4 4
69 5 5
88 7 6
106 8 8
118 9 9
121 9 9
116 9 8
102 8 7
83 6 6
64 5 4
59 4 4
68 5 5
85 6 6
99 7 7
108 8 8
111 8 8
106 8 8
95 7 7
80 6 6
63 5 4
57 4 4
65 5 4
79 6 6
90 7 6
98 7 7
100 8 7
96 7 7
87 7 6
74 6 5
60 4 4
55 4 4
61 4 4
73 5 5
81 6 6
87 7 6
89 7 6
86 6 6
79 6 6
69 5 5
57 4 4
51 4 3
56 4 4
66 5 5
72 5 5
77 6 5
78 6 5
76 6 5
70 5 5
63 5 4
53 4 4
