P3
10 10
255
2 6 2
2 6 2
3 8 2
3 9 3
4 10 3
4 11 3
4 11 3
3 10 3
3 8 2
2 6 2
3 10 3
4 12 4
6 18 6
7 24 8
9 29 9
9 31 10
9 29 9
8 25 8
6 19 6
4 13 4
6 20 6
8 26 8
11 38 12
15 52 17
18 62 20
19 66 22
18 63 21
15 53 17
12 40 13
8 27 9
9 30 9
11 36 12
15 52 17
19 68 22
23 80 26
24 85 28
23 81 27
20 70 23
16 54 18
11 39 13
10 35 11
12 41 13
16 56 18
20 72 23
23 83 27
25 87 29
24 84 28
21 74 24
17 59 19
13 45 14
11 37 12
12 43 14
16 56 18
20 69 23
22 79 26
23 83 27
23 80 26
20 72 23
17 60 19
13 46 15
11 37 12
12 43 14
15 54 18
18 64 21
20 72 24
21 75 25
21 73 24
19 67 22
16 57 19
13 46 15
10 35 11
12 40 13
14 50 16
17 59 19
19 65 21
19 68 22
19 66 22
17 61 20
15 53 17
12 44 14
10 34 11
11 38 12
13 46 15
15 53 17
17 58 19
17 60 20
17 59 19
16 55 18
14 49 16
12 41 13
9 32 10
10 35 11
12 42 14
13 47 15
14 51 16
15 52 17
15 52 17
14 49 16
13 44 14
11 38 12
